<svg xmlns="http://www.w3.org/2000/svg" viewBox="0 0 1000 1000" fill="currentColor"><path d="M468.8 245.2c0 67.3-34.8 147.3-112.4 147.3-97.3 0-156.2-122.5-156.2-206.6.2-67.3 35.1-147.3 112.4-147.3 98 0 156.2 122.6 156.2 206.6zM263.3 535.5c0 58.4-30.8 118.9-96.8 118.9C70.4 654.4 0 536.7 0 449.5c0-58.4 31.2-119.7 96.8-119.7 96.4.3 166.5 118.5 166.5 205.7zM500 519.2c147.3 0 346 212.2 346 353.9 0 76.4-62.5 88.4-123.7 88.4-80.5 0-145.4-54.1-222.2-54.1-80.5 0-149 53.6-236.2 53.6-58.4 0-110-19.9-110-87.7C154 730.6 353 519.2 500 519.2zm143.7-126.7c-77.6 0-112.4-80-112.4-147.3 0-84.1 58.4-206.6 156.2-206.6 77.6 0 112.4 80 112.4 147.3 0 84.1-58.9 206.6-156.2 206.6zm259.5-62.4c65.6 0 96.8 61.3 96.8 119.7 0 87.2-70.4 204.9-166.5 204.9-66.1 0-96.8-60.8-96.8-118.9 0-87.5 70.4-205.7 166.5-205.7z"/></svg>