<?xml version="1.0" standalone="no"?>
<!DOCTYPE svg PUBLIC "-//W3C//DTD SVG 20010904//EN"
 "http://www.w3.org/TR/2001/REC-SVG-20010904/DTD/svg10.dtd">
<svg version="1.0" xmlns="http://www.w3.org/2000/svg"
 width="450.000000pt" height="160.000000pt" viewBox="0 0 450.000000 160.000000"
 preserveAspectRatio="xMidYMid meet">

<g transform="translate(0.000000,160.000000) scale(0.100000,-0.100000)"
fill="#000000" stroke="none">
<path d="M2400 911 c-139 -43 -208 -182 -181 -362 26 -165 111 -239 274 -239
96 0 143 17 198 70 35 33 51 59 63 99 20 70 21 202 0 270 -20 68 -82 131 -149
154 -50 17 -160 21 -205 8z m198 -78 c125 -59 134 -350 14 -430 -64 -42 -171
-42 -234 1 -18 12 -44 42 -58 66 -22 40 -25 57 -25 145 0 106 16 156 64 199
49 44 165 53 239 19z"/>
<path d="M1600 616 l0 -296 35 0 35 0 2 244 3 245 159 -245 159 -244 43 0 44
0 0 295 0 295 -35 0 -35 0 -2 -242 -3 -242 -156 239 -156 240 -46 3 -47 3 0
-295z"/>
<path d="M2910 616 l0 -296 35 0 35 0 0 120 0 120 80 0 80 0 80 -120 c80 -120
80 -120 120 -120 22 0 40 2 40 5 0 3 -36 59 -79 124 l-80 119 30 6 c92 18 142
183 81 265 -46 62 -59 66 -248 69 l-174 3 0 -295z m309 223 c65 -23 84 -128
32 -180 -29 -29 -30 -29 -150 -29 l-121 0 0 110 0 110 104 0 c56 0 117 -5 135
-11z"/>
<path d="M3510 615 l0 -295 178 0 c153 0 182 3 212 18 46 25 70 73 70 142 0
65 -24 111 -68 131 l-29 13 32 31 c74 69 51 202 -41 241 -24 10 -80 14 -194
14 l-160 0 0 -295z m319 220 c16 -8 31 -22 35 -30 13 -35 6 -93 -15 -119 -20
-26 -22 -26 -145 -26 l-124 0 0 95 0 95 110 0 c78 0 119 -4 139 -15z m28 -260
c31 -21 45 -81 32 -128 -15 -56 -45 -67 -189 -67 l-120 0 0 105 0 105 128 0
c99 0 133 -3 149 -15z"/>
<path d="M4151 892 c-50 -25 -74 -63 -79 -126 -5 -63 21 -131 60 -155 14 -9
67 -18 133 -22 102 -7 111 -9 132 -34 16 -18 23 -39 23 -70 0 -94 -22 -105
-205 -105 l-135 0 0 -31 0 -30 169 3 c165 3 170 4 197 28 54 51 71 151 36 220
-28 55 -71 74 -190 80 -124 7 -142 20 -142 99 1 86 31 101 206 101 l124 0 0
30 0 30 -147 0 c-121 0 -154 -3 -182 -18z"/>
<path d="M20 66 c0 -69 15 -84 22 -21 l3 30 23 -37 c13 -21 28 -38 33 -38 5 0
9 30 9 66 0 41 -4 63 -10 59 -5 -3 -10 -23 -11 -43 l0 -37 -17 24 c-50 72 -51
72 -52 -3z"/>
<path d="M266 117 c-13 -9 -17 -24 -14 -56 3 -49 24 -69 54 -56 17 8 15 9 -9
13 -26 3 -28 6 -25 45 3 37 6 42 26 40 25 -3 30 12 6 21 -20 8 -17 8 -38 -7z"/>
<path d="M357 123 c-11 -10 -8 -123 3 -123 6 0 10 28 10 65 0 65 -1 71 -13 58z"/>
<path d="M418 119 c-13 -7 -18 -23 -18 -52 0 -46 13 -67 41 -67 47 0 66 73 29
110 -23 23 -28 24 -52 9z m48 -33 c9 -38 1 -61 -24 -64 -20 -3 -22 1 -22 36 0
21 3 42 7 45 14 15 33 6 39 -17z"/>
<path d="M517 124 c-10 -11 -9 -112 2 -119 6 -3 11 14 13 37 l3 43 28 -42 c15
-24 32 -43 37 -43 13 0 13 117 0 125 -6 4 -10 -11 -11 -37 l0 -43 -17 24 c-33
48 -47 62 -55 55z"/>
<path d="M650 69 c-20 -57 -20 -94 1 -56 13 22 45 22 58 0 5 -10 12 -15 16
-12 7 7 -32 116 -44 124 -5 2 -18 -23 -31 -56z m43 -9 c4 -15 0 -20 -14 -20
-21 0 -22 1 -13 24 8 22 21 20 27 -4z"/>
<path d="M750 66 l0 -66 40 0 c22 0 40 5 40 10 0 6 -13 10 -30 10 -29 0 -30 1
-30 49 0 28 -4 53 -10 56 -6 4 -10 -18 -10 -59z"/>
<path d="M850 65 c0 -37 4 -65 10 -65 6 0 10 19 10 43 l0 42 28 -42 c15 -24
30 -43 35 -43 4 0 7 30 7 66 0 41 -4 63 -10 59 -5 -3 -10 -22 -10 -42 l0 -36
-30 41 c-17 23 -32 42 -35 42 -3 0 -5 -29 -5 -65z"/>
<path d="M999 104 c-31 -79 -37 -104 -28 -104 5 0 12 7 15 15 8 20 50 19 58
-1 4 -9 9 -14 12 -11 7 6 -24 107 -37 121 -5 5 -13 -3 -20 -20z m30 -56 c1 -5
-6 -8 -14 -8 -16 0 -19 9 -8 36 6 16 7 16 14 -2 4 -10 8 -22 8 -26z"/>
<path d="M1142 114 c-40 -27 -24 -114 21 -114 34 0 47 19 47 67 0 32 -5 45
-19 53 -25 13 -22 13 -49 -6z m46 -52 c3 -40 2 -43 -20 -40 -17 2 -24 11 -26
31 -5 39 5 59 25 55 13 -2 19 -15 21 -46z"/>
<path d="M1240 65 c0 -37 4 -65 10 -65 6 0 10 11 10 25 0 32 13 32 34 0 23
-35 40 -31 21 5 -9 17 -11 30 -6 30 5 0 11 7 15 15 8 21 -29 55 -59 55 -24 0
-25 -2 -25 -65z m63 31 c7 -18 -1 -26 -25 -26 -11 0 -18 7 -18 20 0 23 35 28
43 6z"/>
<path d="M1368 119 c-21 -12 -25 -88 -6 -107 18 -18 56 -14 68 7 17 33 12 51
-15 51 -14 0 -25 -4 -25 -10 0 -5 7 -10 16 -10 24 0 11 -25 -15 -28 -20 -3
-22 0 -19 40 3 40 5 43 31 41 24 -2 27 0 17 13 -14 16 -28 17 -52 3z"/>
<path d="M1497 123 c-14 -23 -46 -117 -41 -122 3 -3 10 2 15 12 6 9 19 17 29
17 10 0 23 -8 29 -17 18 -33 23 -4 7 44 -19 57 -32 78 -39 66z m22 -75 c1 -5
-6 -8 -14 -8 -16 0 -19 9 -8 36 6 16 7 16 14 -2 4 -10 8 -22 8 -26z"/>
<path d="M1577 124 c-10 -11 -9 -124 2 -124 6 0 11 19 13 42 l3 42 28 -42 c15
-23 32 -42 37 -42 13 0 13 117 0 125 -6 4 -10 -11 -10 -37 -1 -42 -1 -43 -18
-22 -9 11 -24 30 -32 43 -8 12 -18 19 -23 15z"/>
<path d="M1700 66 c0 -37 4 -66 10 -66 6 0 10 26 10 59 0 33 -4 63 -10 66 -6
4 -10 -18 -10 -59z"/>
<path d="M1745 121 c-3 -5 8 -11 25 -13 l30 -3 -30 -45 c-16 -25 -30 -48 -30
-52 0 -5 18 -8 40 -8 22 0 40 5 40 10 0 6 -12 10 -26 10 l-26 0 26 44 c14 25
26 49 26 55 0 13 -67 15 -75 2z"/>
<path d="M1874 114 c-4 -10 -15 -40 -25 -67 -11 -26 -14 -47 -9 -47 6 0 13 7
16 15 8 19 50 19 58 0 3 -8 10 -15 15 -15 10 0 -25 106 -40 124 -5 5 -11 1
-15 -10z m26 -61 c0 -7 -7 -13 -15 -13 -16 0 -19 9 -9 35 5 13 8 14 15 3 5 -7
9 -19 9 -25z"/>
<path d="M1972 114 c-16 -11 -22 -25 -22 -53 0 -42 14 -61 46 -61 34 0 39 18
7 22 -25 3 -28 7 -28 43 0 33 4 40 20 41 38 3 40 4 25 14 -20 13 -22 13 -48
-6z"/>
<path d="M2057 123 c-11 -10 -8 -111 3 -118 6 -4 10 18 10 59 0 66 -1 72 -13
59z"/>
<path d="M2148 124 c-5 -4 -8 -29 -8 -56 0 -41 -3 -48 -20 -48 -11 0 -20 -4
-20 -10 0 -5 8 -10 18 -10 35 0 43 15 40 74 -2 32 -6 54 -10 50z"/>
<path d="M2226 122 c-15 -25 -45 -122 -37 -122 5 0 11 7 15 15 7 20 35 19 59
-3 20 -17 20 -16 13 13 -13 55 -42 110 -50 97z m23 -74 c1 -5 -6 -8 -14 -8
-16 0 -19 9 -8 36 6 16 7 16 14 -2 4 -10 8 -22 8 -26z"/>
<path d="M2340 120 c0 -5 11 -10 25 -10 14 0 25 -2 25 -5 0 -3 -11 -23 -25
-45 -14 -22 -25 -44 -25 -50 0 -5 18 -10 40 -10 22 0 40 5 40 10 0 6 -13 10
-30 10 l-30 0 30 46 c16 26 27 51 24 55 -7 12 -74 11 -74 -1z"/>
<path d="M2597 123 c-11 -10 -8 -123 3 -123 6 0 10 11 10 25 0 32 23 32 38 0
6 -14 16 -25 22 -25 13 0 13 6 -1 32 -8 14 -8 23 0 31 17 17 13 45 -8 57 -22
11 -54 13 -64 3z m58 -33 c0 -8 -10 -16 -22 -18 -18 -3 -23 2 -23 18 0 16 5
21 23 18 12 -2 22 -10 22 -18z"/>
<path d="M2710 65 l0 -65 40 0 c22 0 40 5 40 10 0 6 -13 10 -30 10 -20 0 -30
5 -30 15 0 8 9 15 19 15 11 0 23 5 26 10 4 6 -5 10 -19 10 -19 0 -26 5 -26 20
0 16 7 20 31 20 17 0 28 4 24 10 -3 6 -22 10 -41 10 l-34 0 0 -65z"/>
<path d="M2800 120 c0 -5 7 -10 15 -10 11 0 15 -12 15 -49 0 -28 5 -53 10 -56
6 -4 10 15 10 49 0 50 2 56 21 56 11 0 17 5 14 10 -3 6 -24 10 -46 10 -21 0
-39 -4 -39 -10z"/>
<path d="M2910 66 c0 -70 13 -88 24 -33 7 31 7 31 22 12 9 -11 19 -27 24 -35
5 -8 12 -12 15 -8 4 4 -2 22 -13 40 -20 33 -20 33 -1 57 11 13 17 27 13 30 -3
3 -19 -10 -35 -29 l-28 -35 -1 27 c0 15 -4 30 -10 33 -6 4 -10 -18 -10 -59z"/>
<path d="M3027 123 c-4 -3 -7 -33 -7 -65 l0 -58 40 0 c22 0 40 5 40 10 0 6
-13 10 -30 10 -20 0 -30 5 -30 15 0 9 9 15 25 15 14 0 25 5 25 10 0 6 -11 10
-25 10 -18 0 -25 5 -25 20 0 16 7 20 30 20 17 0 30 5 30 10 0 11 -63 14 -73 3z"/>
<path d="M3177 123 c-4 -3 -7 -33 -7 -65 l0 -58 34 0 c42 0 65 24 48 50 -7 12
-8 21 -2 25 14 9 12 21 -6 39 -16 16 -55 22 -67 9z m58 -33 c0 -8 -10 -16 -22
-18 -18 -3 -23 2 -23 18 0 16 5 21 23 18 12 -2 22 -10 22 -18z m-11 -36 c25
-10 19 -34 -9 -34 -18 0 -25 5 -25 20 0 21 8 24 34 14z"/>
<path d="M3302 114 c-40 -27 -24 -114 21 -114 34 0 47 19 47 67 0 32 -5 45
-19 53 -25 13 -22 13 -49 -6z m46 -52 c3 -40 2 -43 -20 -40 -17 2 -24 11 -26
31 -5 39 5 59 25 55 13 -2 19 -15 21 -46z"/>
<path d="M3400 66 l0 -66 40 0 c22 0 40 5 40 10 0 6 -13 10 -30 10 -29 0 -30
1 -30 49 0 28 -4 53 -10 56 -6 4 -10 -18 -10 -59z"/>
<path d="M3500 65 l0 -65 40 0 c22 0 40 5 40 10 0 6 -13 10 -30 10 -20 0 -30
5 -30 15 0 8 9 15 19 15 11 0 23 5 26 10 4 6 -5 10 -19 10 -19 0 -26 5 -26 20
0 16 7 20 31 20 17 0 28 4 24 10 -3 6 -22 10 -41 10 l-34 0 0 -65z"/>
<path d="M3618 119 c-29 -16 -22 -49 12 -62 17 -6 30 -18 30 -25 0 -10 -9 -13
-30 -10 -16 3 -30 1 -30 -4 0 -14 28 -21 56 -14 35 9 31 57 -6 66 -14 3 -26
14 -28 24 -3 15 1 18 22 14 28 -6 36 6 10 16 -19 7 -15 8 -36 -5z"/>
<path d="M3700 120 c0 -5 7 -10 15 -10 12 0 15 -13 15 -55 0 -30 5 -55 10 -55
6 0 10 25 10 55 0 42 3 55 15 55 8 0 15 5 15 10 0 6 -18 10 -40 10 -22 0 -40
-4 -40 -10z"/>
<path d="M3807 123 c-11 -10 -8 -123 3 -123 6 0 10 28 10 65 0 65 -1 71 -13
58z"/>
<path d="M3908 119 c-30 -17 -22 -47 18 -64 41 -17 37 -35 -7 -35 -18 0 -28
-4 -24 -10 3 -5 19 -10 35 -10 55 0 59 62 5 72 -11 2 -20 10 -20 18 0 8 9 16
20 16 38 3 40 4 25 14 -19 12 -30 12 -52 -1z"/>
<path d="M4000 65 c0 -37 4 -65 10 -65 6 0 10 11 10 25 0 32 23 32 38 0 6 -14
16 -25 22 -25 6 0 4 12 -5 30 -9 17 -11 30 -6 30 5 0 12 8 16 17 8 22 -28 53
-61 53 -23 0 -24 -3 -24 -65z m65 25 c0 -8 -10 -16 -22 -18 -18 -3 -23 2 -23
18 0 16 5 21 23 18 12 -2 22 -10 22 -18z"/>
<path d="M4117 123 c-4 -3 -7 -33 -7 -65 l0 -58 33 0 c47 0 55 10 55 63 0 36
-4 50 -18 57 -21 11 -54 13 -63 3z m58 -33 c0 -22 -39 -19 -43 3 -3 15 1 18
20 15 12 -2 23 -10 23 -18z m3 -53 c3 -12 -3 -17 -22 -17 -25 0 -35 18 -19 34
12 12 38 2 41 -17z"/>
<path d="M4230 66 c0 -37 4 -66 10 -66 6 0 10 26 10 59 0 33 -4 63 -10 66 -6
4 -10 -18 -10 -59z"/>
<path d="M4320 78 c0 -54 -1 -57 -27 -60 -25 -4 -26 -5 -9 -13 31 -14 51 7 54
60 2 26 -2 53 -7 58 -8 8 -11 -6 -11 -45z"/>
<path d="M4370 65 l0 -65 40 0 c22 0 40 5 40 10 0 6 -13 10 -30 10 -20 0 -30
5 -30 15 0 9 9 15 25 15 14 0 25 5 25 10 0 6 -11 10 -25 10 -18 0 -25 5 -25
20 0 16 7 20 31 20 17 0 28 4 24 10 -3 6 -22 10 -41 10 l-34 0 0 -65z"/>
<path d="M151 64 c-21 -54 -20 -88 0 -51 13 22 45 22 58 0 5 -10 13 -15 16
-11 9 9 -29 111 -43 116 -6 2 -20 -23 -31 -54z m42 -4 c4 -15 0 -20 -13 -20
-13 0 -17 5 -13 20 3 11 9 20 13 20 4 0 10 -9 13 -20z"/>
<path d="M2451 64 c-21 -54 -20 -88 0 -51 6 9 19 17 29 17 10 0 23 -8 29 -17
5 -10 12 -15 15 -12 9 8 -29 112 -41 116 -6 2 -21 -22 -32 -53z m42 -4 c4 -15
0 -20 -13 -20 -13 0 -17 5 -13 20 3 11 9 20 13 20 4 0 10 -9 13 -20z"/>
</g>
</svg>
