<svg xmlns="http://www.w3.org/2000/svg" viewBox="0 0 25 25" fill="currentColor"><path d="M18.672 0H6.328A6.33 6.33 0 0 0 0 6.328v12.344A6.33 6.33 0 0 0 6.328 25h12.344A6.33 6.33 0 0 0 25 18.672V6.328A6.33 6.33 0 0 0 18.672 0Zm.707 8.366c0 .034 0 .117-.07.215-.311.422-.65.804-1.074 1.122-.062.049-.166.097-.166.18 0 2.225-.568 4.443-2.19 6.058-2.066 2.052-5.164 2.606-7.908 1.85a7.68 7.68 0 0 1-1.532-.61c-.16-.09-.319-.18-.478-.283-.042-.035-.07-.063-.035-.084.035-.013.062-.02.18 0 .77.077 1.56-.041 2.287-.29.402-.14 1.262-.423 1.504-.798 0-.007.014-.007.021-.02-.097-.021-.2-.021-.298-.042-.748-.215-1.746-.59-2.204-1.85-.028-.077 0-.111.076-.098.617.049.839.014 1.047-.034a1.605 1.605 0 0 1-.354-.111c-.942-.36-1.628-1.275-1.753-2.267a2.631 2.631 0 0 1-.02-.318c0-.077.04-.097.103-.056.485.25 1.026.312 1.067.298a6.978 6.978 0 0 1-.34-.298c-.817-.77-1.129-2.343-.477-3.327.055-.076.09-.076.152 0 1.49 1.698 3.327 2.495 5.545 2.821.055.007.062 0 .055-.062a3.094 3.094 0 0 1 .028-1.158 2.881 2.881 0 0 1 1.462-1.844 2.743 2.743 0 0 1 1.137-.318c.41-.028.818.041 1.2.194.29.118.54.277.782.478a.88.88 0 0 1 .139.146.104.104 0 0 0 .11.027 6.7 6.7 0 0 0 1.616-.616c.02-.014.041-.021.07 0 .02.02.013.048 0 .069a2.52 2.52 0 0 1-.451.825c-.132.16-.45.554-.673.596a5.35 5.35 0 0 0 1.359-.388c.055-.028.055-.035.055 0v.013l.028-.02Z"/></svg>