<svg xmlns="http://www.w3.org/2000/svg" viewBox="0 0 1000 1000" fill="currentColor"><path d="M801.2 707.3c-38.2 0-72.5 14.8-98.6 38.7L344.9 537.4c2.8-11.3 4.5-23.1 4.5-35.1s-1.8-23.8-4.5-35.1l353.9-206.6c26.9 25.1 62.8 40.7 102.4 40.7 83.1 0 150.6-67.5 150.6-150.6S884.3 0 801.2 0 650.6 67.5 650.6 150.6c0 12 1.8 23.8 4.5 35.1L301.2 392.3c-26.9-25.1-62.8-40.7-102.4-40.7-83.1 0-150.6 67.5-150.6 150.6s67.5 150.6 150.6 150.6c39.7 0 75.6-15.6 102.4-40.7l357.7 208.6c-2.5 10.5-4 21.6-4 32.9 0 80.8 65.5 146.3 146.3 146.3s146.3-65.5 146.3-146.3S882 707.3 801.2 707.3z"/></svg>